<mxfile host="app.diagrams.net" agent="Mozilla/5.0 (Windows NT 10.0; Win64; x64) AppleWebKit/537.36 (KHTML, like Gecko) Chrome/132.0.0.0 Safari/537.36" version="26.0.11">
  <diagram name="Page-1" id="fv1Mwjfkesf3BjU1wTxO">
    <mxGraphModel dx="1062" dy="882" grid="1" gridSize="10" guides="1" tooltips="1" connect="1" arrows="1" fold="1" page="1" pageScale="1" pageWidth="850" pageHeight="1100" math="0" shadow="0">
      <root>
        <mxCell id="0" />
        <mxCell id="1" parent="0" />
        <mxCell id="2" value="Program" style="swimlane;fontStyle=1;align=center;verticalAlign=top;childLayout=stackLayout;horizontal=1;startSize=47.2;horizontalStack=0;resizeParent=1;resizeParentMax=0;resizeLast=0;collapsible=0;marginBottom=0;" parent="1" vertex="1">
          <mxGeometry x="8" y="8" width="276" height="102.2" as="geometry" />
        </mxCell>
        <mxCell id="3" style="line;strokeWidth=1;fillColor=none;align=left;verticalAlign=middle;spacingTop=-1;spacingLeft=3;spacingRight=3;rotatable=0;labelPosition=right;points=[];portConstraint=eastwest;strokeColor=inherit;" parent="2" vertex="1">
          <mxGeometry y="47.2" width="276" height="8" as="geometry" />
        </mxCell>
        <mxCell id="4" value="+ static void Main(string[] args)" style="text;strokeColor=none;fillColor=none;align=left;verticalAlign=top;spacingLeft=4;spacingRight=4;overflow=hidden;rotatable=0;points=[[0,0.5],[1,0.5]];portConstraint=eastwest;" parent="2" vertex="1">
          <mxGeometry y="55.2" width="276" height="47" as="geometry" />
        </mxCell>
        <mxCell id="B6ESGtYLDMg1vNMlIh2B-18" value="" style="edgeStyle=orthogonalEdgeStyle;rounded=0;orthogonalLoop=1;jettySize=auto;html=1;" edge="1" parent="1" source="5" target="B6ESGtYLDMg1vNMlIh2B-12">
          <mxGeometry relative="1" as="geometry" />
        </mxCell>
        <mxCell id="5" value="DataManager" style="swimlane;fontStyle=1;align=center;verticalAlign=top;childLayout=stackLayout;horizontal=1;startSize=36.8;horizontalStack=0;resizeParent=1;resizeParentMax=0;resizeLast=0;collapsible=0;marginBottom=0;" parent="1" vertex="1">
          <mxGeometry x="13" y="207" width="266" height="229.8" as="geometry" />
        </mxCell>
        <mxCell id="6" value="+ List&lt;Character&gt;" style="text;strokeColor=none;fillColor=none;align=left;verticalAlign=top;spacingLeft=4;spacingRight=4;overflow=hidden;rotatable=0;points=[[0,0.5],[1,0.5]];portConstraint=eastwest;" parent="5" vertex="1">
          <mxGeometry y="36.8" width="266" height="37" as="geometry" />
        </mxCell>
        <mxCell id="7" style="line;strokeWidth=1;fillColor=none;align=left;verticalAlign=middle;spacingTop=-1;spacingLeft=3;spacingRight=3;rotatable=0;labelPosition=right;points=[];portConstraint=eastwest;strokeColor=inherit;" parent="5" vertex="1">
          <mxGeometry y="73.8" width="266" height="8" as="geometry" />
        </mxCell>
        <mxCell id="8" value="+ void LoadData()" style="text;strokeColor=none;fillColor=none;align=left;verticalAlign=top;spacingLeft=4;spacingRight=4;overflow=hidden;rotatable=0;points=[[0,0.5],[1,0.5]];portConstraint=eastwest;" parent="5" vertex="1">
          <mxGeometry y="81.8" width="266" height="37" as="geometry" />
        </mxCell>
        <mxCell id="B6ESGtYLDMg1vNMlIh2B-31" value="+ void AddCharacter(Character c)" style="text;strokeColor=none;fillColor=none;align=left;verticalAlign=top;spacingLeft=4;spacingRight=4;overflow=hidden;rotatable=0;points=[[0,0.5],[1,0.5]];portConstraint=eastwest;" vertex="1" parent="5">
          <mxGeometry y="118.8" width="266" height="37" as="geometry" />
        </mxCell>
        <mxCell id="9" value="+ void RemoveCharacter(string name)" style="text;strokeColor=none;fillColor=none;align=left;verticalAlign=top;spacingLeft=4;spacingRight=4;overflow=hidden;rotatable=0;points=[[0,0.5],[1,0.5]];portConstraint=eastwest;" parent="5" vertex="1">
          <mxGeometry y="155.8" width="266" height="37" as="geometry" />
        </mxCell>
        <mxCell id="B6ESGtYLDMg1vNMlIh2B-19" value="+ void FindCharacter(string name)" style="text;strokeColor=none;fillColor=none;align=left;verticalAlign=top;spacingLeft=4;spacingRight=4;overflow=hidden;rotatable=0;points=[[0,0.5],[1,0.5]];portConstraint=eastwest;" vertex="1" parent="5">
          <mxGeometry y="192.8" width="266" height="37" as="geometry" />
        </mxCell>
        <mxCell id="11" value="uses" style="curved=1;startArrow=none;endArrow=none;exitX=0.5;exitY=1;entryX=0.5;entryY=0;" parent="1" source="2" target="5" edge="1">
          <mxGeometry relative="1" as="geometry">
            <Array as="points" />
          </mxGeometry>
        </mxCell>
        <mxCell id="B6ESGtYLDMg1vNMlIh2B-12" value="Character" style="swimlane;fontStyle=1;align=center;verticalAlign=top;childLayout=stackLayout;horizontal=1;startSize=36.8;horizontalStack=0;resizeParent=1;resizeParentMax=0;resizeLast=0;collapsible=0;marginBottom=0;" vertex="1" parent="1">
          <mxGeometry x="13" y="478.6" width="266" height="155.8" as="geometry" />
        </mxCell>
        <mxCell id="B6ESGtYLDMg1vNMlIh2B-13" value="- string Name&#xa;- int Level" style="text;strokeColor=none;fillColor=none;align=left;verticalAlign=top;spacingLeft=4;spacingRight=4;overflow=hidden;rotatable=0;points=[[0,0.5],[1,0.5]];portConstraint=eastwest;" vertex="1" parent="B6ESGtYLDMg1vNMlIh2B-12">
          <mxGeometry y="36.8" width="266" height="37" as="geometry" />
        </mxCell>
        <mxCell id="B6ESGtYLDMg1vNMlIh2B-14" style="line;strokeWidth=1;fillColor=none;align=left;verticalAlign=middle;spacingTop=-1;spacingLeft=3;spacingRight=3;rotatable=0;labelPosition=right;points=[];portConstraint=eastwest;strokeColor=inherit;" vertex="1" parent="B6ESGtYLDMg1vNMlIh2B-12">
          <mxGeometry y="73.8" width="266" height="8" as="geometry" />
        </mxCell>
        <mxCell id="B6ESGtYLDMg1vNMlIh2B-37" value="+ void LevelUpCharacter()" style="text;strokeColor=none;fillColor=none;align=left;verticalAlign=top;spacingLeft=4;spacingRight=4;overflow=hidden;rotatable=0;points=[[0,0.5],[1,0.5]];portConstraint=eastwest;" vertex="1" parent="B6ESGtYLDMg1vNMlIh2B-12">
          <mxGeometry y="81.8" width="266" height="37" as="geometry" />
        </mxCell>
        <mxCell id="B6ESGtYLDMg1vNMlIh2B-15" value="+ override ToString()" style="text;strokeColor=none;fillColor=none;align=left;verticalAlign=top;spacingLeft=4;spacingRight=4;overflow=hidden;rotatable=0;points=[[0,0.5],[1,0.5]];portConstraint=eastwest;" vertex="1" parent="B6ESGtYLDMg1vNMlIh2B-12">
          <mxGeometry y="118.8" width="266" height="37" as="geometry" />
        </mxCell>
        <mxCell id="B6ESGtYLDMg1vNMlIh2B-25" value="DB" style="shape=cylinder3;whiteSpace=wrap;html=1;boundedLbl=1;backgroundOutline=1;size=15;" vertex="1" parent="1">
          <mxGeometry x="480" y="150.00000000000003" width="60" height="80" as="geometry" />
        </mxCell>
        <mxCell id="B6ESGtYLDMg1vNMlIh2B-26" value="File" style="whiteSpace=wrap;html=1;shape=mxgraph.basic.document" vertex="1" parent="1">
          <mxGeometry x="480" y="270.8" width="60" height="73" as="geometry" />
        </mxCell>
        <mxCell id="B6ESGtYLDMg1vNMlIh2B-27" style="edgeStyle=orthogonalEdgeStyle;rounded=0;orthogonalLoop=1;jettySize=auto;html=1;entryX=0;entryY=0.5;entryDx=0;entryDy=0;entryPerimeter=0;exitX=1;exitY=0.5;exitDx=0;exitDy=0;" edge="1" parent="1" source="8" target="B6ESGtYLDMg1vNMlIh2B-26">
          <mxGeometry relative="1" as="geometry" />
        </mxCell>
        <mxCell id="B6ESGtYLDMg1vNMlIh2B-33" value="?" style="edgeLabel;html=1;align=center;verticalAlign=middle;resizable=0;points=[];" vertex="1" connectable="0" parent="B6ESGtYLDMg1vNMlIh2B-27">
          <mxGeometry x="0.6807" y="3" relative="1" as="geometry">
            <mxPoint as="offset" />
          </mxGeometry>
        </mxCell>
        <mxCell id="B6ESGtYLDMg1vNMlIh2B-28" style="edgeStyle=orthogonalEdgeStyle;rounded=0;orthogonalLoop=1;jettySize=auto;html=1;exitX=1;exitY=0.5;exitDx=0;exitDy=0;entryX=0;entryY=0.5;entryDx=0;entryDy=0;entryPerimeter=0;" edge="1" parent="1" source="8" target="B6ESGtYLDMg1vNMlIh2B-25">
          <mxGeometry relative="1" as="geometry" />
        </mxCell>
        <mxCell id="B6ESGtYLDMg1vNMlIh2B-30" value="Load Data" style="edgeLabel;html=1;align=center;verticalAlign=middle;resizable=0;points=[];" vertex="1" connectable="0" parent="B6ESGtYLDMg1vNMlIh2B-28">
          <mxGeometry x="-0.4959" y="-1" relative="1" as="geometry">
            <mxPoint x="-19" as="offset" />
          </mxGeometry>
        </mxCell>
        <mxCell id="B6ESGtYLDMg1vNMlIh2B-32" value="?" style="edgeLabel;html=1;align=center;verticalAlign=middle;resizable=0;points=[];" vertex="1" connectable="0" parent="B6ESGtYLDMg1vNMlIh2B-28">
          <mxGeometry x="0.5434" y="1" relative="1" as="geometry">
            <mxPoint as="offset" />
          </mxGeometry>
        </mxCell>
        <mxCell id="B6ESGtYLDMg1vNMlIh2B-34" value="DataManager isn&#39;t concerned with&amp;nbsp;&lt;div&gt;where the data comes from&lt;/div&gt;" style="text;html=1;align=left;verticalAlign=middle;resizable=0;points=[];autosize=1;strokeColor=none;fillColor=none;" vertex="1" parent="1">
          <mxGeometry x="320" y="355" width="210" height="40" as="geometry" />
        </mxCell>
        <mxCell id="B6ESGtYLDMg1vNMlIh2B-35" value="Program only cares that the DataManager has the data available" style="text;html=1;align=left;verticalAlign=middle;whiteSpace=wrap;rounded=0;" vertex="1" parent="1">
          <mxGeometry x="320" y="50" width="170" height="30" as="geometry" />
        </mxCell>
        <mxCell id="B6ESGtYLDMg1vNMlIh2B-36" value="Character represents a single character&amp;nbsp;&lt;div&gt;and operations on that character&lt;/div&gt;" style="text;html=1;align=left;verticalAlign=middle;resizable=0;points=[];autosize=1;strokeColor=none;fillColor=none;" vertex="1" parent="1">
          <mxGeometry x="320" y="518" width="240" height="40" as="geometry" />
        </mxCell>
      </root>
    </mxGraphModel>
  </diagram>
</mxfile>
